<svg version="1.1" xmlns="http://www.w3.org/2000/svg" style="display: block;" viewBox="0 0 2048 2048" width="1000" height="1000" preserveAspectRatio="none">
<defs>
	<linearGradient id="Gradient1" gradientUnits="userSpaceOnUse" x1="1580.33" y1="1227.94" x2="1472.29" y2="1209.21">
		<stop class="stop0" offset="0" stop-opacity="1" stop-color="rgb(192,156,88)"/>
		<stop class="stop1" offset="1" stop-opacity="1" stop-color="rgb(208,184,112)"/>
	</linearGradient>
	<linearGradient id="Gradient2" gradientUnits="userSpaceOnUse" x1="693.115" y1="1209.23" x2="804.732" y2="1226.75">
		<stop class="stop0" offset="0" stop-opacity="1" stop-color="rgb(157,115,54)"/>
		<stop class="stop1" offset="1" stop-opacity="1" stop-color="rgb(176,143,81)"/>
	</linearGradient>
	<linearGradient id="Gradient3" gradientUnits="userSpaceOnUse" x1="961.42" y1="1200.53" x2="1097.4" y2="1235.17">
		<stop class="stop0" offset="0" stop-opacity="1" stop-color="rgb(205,182,111)"/>
		<stop class="stop1" offset="1" stop-opacity="1" stop-color="rgb(232,215,138)"/>
	</linearGradient>
	<linearGradient id="Gradient4" gradientUnits="userSpaceOnUse" x1="821.17" y1="1208.81" x2="947.31" y2="1226.83">
		<stop class="stop0" offset="0" stop-opacity="1" stop-color="rgb(183,146,82)"/>
		<stop class="stop1" offset="1" stop-opacity="1" stop-color="rgb(205,177,106)"/>
	</linearGradient>
</defs>
<path transform="translate(0,0)" fill="rgb(0,69,114)" d="M 0 0 L 2048 0 L 2048 2048 L 0 2048 L 0 0 z"/>
<path transform="translate(0,0)" fill="rgb(145,96,38)" d="M 514.548 1387.36 C 482.964 1368.81 461.088 1350.03 439.694 1319.8 C 407.35 1274.57 394.263 1218.36 403.303 1163.49 C 417.766 1080.59 481.529 1015.01 562.683 994.53 C 600.582 984.966 632.52 985.328 670.605 992.227 C 659.059 993.373 646.981 994.286 635.576 996.281 C 439.611 1030.56 381.841 1249.2 518.257 1385.7 L 514.548 1387.36 z"/>
<path transform="translate(0,0)" fill="rgb(145,96,38)" d="M 531.547 811.421 C 628.715 805.671 731.436 882.119 751.131 977.681 C 726.796 932.774 701.873 902.535 655.228 878.795 C 602.045 851.728 550.534 848.252 493.288 862.836 C 474.674 867.153 447.36 880.064 431.437 890.513 C 376.033 926.873 343.209 974.465 328.81 1038.25 C 327.022 1009.88 330.801 985.893 340.074 959.012 C 369.728 873.045 440.563 817.966 531.547 811.421 z"/>
<path transform="translate(0,0)" fill="rgb(145,96,38)" d="M 585.557 720.422 C 651.492 715.192 719.719 750.028 759.128 802.246 C 798.648 854.611 809.66 911.132 800.975 975.242 C 799.677 961.242 797.534 947.333 794.558 933.591 C 781.717 873.907 747.15 829.709 696.568 797.027 C 659.896 771.892 598.681 758.229 554.68 762.791 C 483.755 770.144 435.107 800.541 390.784 854.256 C 396.092 839.39 416.25 809.492 426.846 797.982 C 471.714 749.243 520.283 724.9 585.557 720.422 z"/>
<path transform="translate(0,0)" fill="rgb(145,96,38)" d="M 758.032 620.527 C 782.812 618.553 807.748 620.345 831.99 625.845 C 890.79 639.029 941.804 675.335 973.523 726.571 C 1002.34 772.675 1011.38 828.441 998.605 881.288 C 984.749 938.791 943.973 991.72 893.628 1022.25 C 883.135 1028.8 874.101 1032.88 862.958 1038.02 C 893.928 1012.78 913.875 996.748 933.588 959.889 C 963.081 905.658 969.197 841.749 950.525 782.909 C 921.814 690.215 848.787 636.043 758.695 621.044 C 758.474 620.872 758.253 620.699 758.032 620.527 z"/>
<path transform="translate(0,0)" fill="rgb(145,96,38)" d="M 535.043 909.42 C 596.844 904.43 653.633 927.233 701.623 964.703 C 685.354 957.777 675.695 952.428 657.994 946.977 C 600.43 928.979 538.054 934.815 484.828 963.179 C 432.654 991.27 389.289 1041.06 372.413 1098.25 C 356.241 1154.54 361.933 1193.47 378.521 1247.67 C 359.031 1222.7 343.567 1171.96 341.084 1140.66 C 331.434 1019 411.255 918.671 535.043 909.42 z"/>
<path transform="translate(0,0)" fill="rgb(145,96,38)" d="M 925.442 631.262 C 940.602 630.658 980.362 646.389 994.836 654.201 C 1169.56 748.502 1139.29 992.129 950.484 1049.33 C 936.616 1053.7 924.171 1056.72 909.584 1057.13 C 918.121 1053.3 927.567 1050.25 936.263 1046.28 C 1067.84 986.236 1110.1 810.407 1016.04 698.956 C 987.186 664.77 964.568 650.306 925.442 631.262 z"/>
<path transform="translate(0,0)" fill="rgb(145,96,38)" d="M 535.626 716.253 C 585.874 679.253 648.699 663.592 710.434 672.677 C 827.068 690.574 899.321 804.856 880.352 918.767 C 875.019 950.858 862.953 981.456 844.948 1008.55 L 842.328 1004.78 C 856.064 968.355 861.19 936.611 857.889 897.728 C 850.689 812.911 790.726 739.8 711.295 710.162 C 665.383 693.161 615.255 691.191 568.151 704.537 C 557.902 707.47 545.714 712.4 535.626 716.253 z"/>
<path transform="translate(0,0)" fill="rgb(145,96,38)" d="M 641.888 1428.62 C 609.946 1416.77 586.465 1404.23 561.04 1381.07 C 480.549 1307.73 476.299 1185.05 551.1 1105.61 C 588.433 1066.14 639.876 1043.05 694.18 1041.41 C 683.621 1045.3 672.574 1048.1 662.404 1052.94 C 503.61 1128.5 495.253 1337.16 646.087 1425.06 L 641.888 1428.62 z"/>
<path transform="translate(0,0)" fill="url(#Gradient4)" d="M 871.68 1154.28 C 907.19 1147.01 941.813 1170.09 948.778 1205.66 C 955.743 1241.23 932.378 1275.66 896.751 1282.32 C 861.543 1288.91 827.609 1265.88 820.726 1230.73 C 813.844 1195.58 836.588 1161.45 871.68 1154.28 z"/>
<path transform="translate(0,0)" fill="rgb(0,69,114)" d="M 874.119 1167.28 C 902.393 1161.39 930.051 1179.67 935.725 1207.98 C 941.398 1236.3 922.914 1263.82 894.552 1269.28 C 866.495 1274.68 839.335 1256.43 833.723 1228.42 C 828.11 1200.4 846.146 1173.11 874.119 1167.28 z"/>
<path transform="translate(0,0)" fill="url(#Gradient3)" d="M 970.278 1156.98 L 989.753 1156.97 C 1002.18 1173.37 1017.98 1198.26 1029.56 1215.71 C 1043.2 1196.28 1056.59 1176.67 1069.73 1156.89 L 1089.3 1156.99 C 1088.68 1197.26 1089.19 1239.13 1089.19 1279.53 L 1075.14 1279.6 C 1075.07 1247.5 1074.44 1212.47 1075.77 1180.63 C 1075.81 1177.81 1076.22 1175.51 1074.77 1173.2 C 1068.36 1175.7 1037.55 1231.09 1029.78 1233.82 C 1020.94 1228.23 992.967 1183.11 983.903 1170.78 L 983.977 1279.58 L 970.246 1279.57 L 970.278 1156.98 z"/>
<path transform="translate(0,0)" fill="url(#Gradient2)" d="M 699.047 1156.86 L 712.915 1156.91 L 713.17 1209.31 C 737.172 1209.13 761.175 1209.07 785.177 1209.14 L 784.984 1156.86 L 799.097 1157.03 C 798.968 1171.62 800.822 1272.28 798.409 1278.96 L 794.951 1279.76 C 791.083 1279.89 790.285 1279.99 786.552 1279.25 C 783.639 1275.81 785.158 1229.21 785.226 1221.32 C 762.371 1220.62 736.171 1221.22 713.059 1221.22 L 713.122 1279.24 L 699.032 1279.35 L 699.047 1156.86 z"/>
<path transform="translate(0,0)" fill="rgb(233,217,141)" d="M 1355.79 1156.78 L 1370.03 1156.97 C 1369.89 1184.09 1368.45 1212.8 1371.22 1239.71 C 1374.94 1279.33 1435.95 1279.51 1441.64 1242.88 C 1445.73 1216.55 1443.57 1183.79 1443.9 1156.88 L 1457.79 1156.86 L 1457.84 1170.25 C 1457.94 1195.64 1459.99 1225.05 1454.25 1249.53 C 1445.97 1284.87 1393.99 1291.82 1370.25 1268.76 C 1364.92 1263.58 1361.05 1257.09 1359.02 1249.95 C 1353.93 1232.48 1355.7 1178.51 1355.79 1156.78 z"/>
<path transform="translate(0,0)" fill="url(#Gradient1)" d="M 1479.02 1156.94 C 1490.19 1156.78 1568.44 1155.88 1572.84 1158.39 C 1575.15 1170.89 1554.02 1191.73 1546.11 1201.34 C 1527.94 1223.12 1509.93 1245.03 1492.09 1267.08 C 1518.58 1267.92 1548.09 1267.23 1574.91 1267.34 C 1574.96 1270.95 1575.57 1276.48 1573.85 1279.35 C 1555.87 1280.16 1535.17 1279.54 1517 1279.73 C 1506.49 1279.83 1484.55 1280.35 1475.28 1279.13 L 1474.24 1277.4 C 1474.2 1275.05 1473.95 1270.63 1475.11 1268.84 C 1481.36 1259.25 1491.3 1248.14 1498.58 1239.32 L 1557.01 1168.75 L 1509.25 1168.86 C 1501.42 1168.88 1487.39 1169.32 1480.04 1168.24 C 1478.5 1165.09 1478.99 1160.6 1479.02 1156.94 z"/>
<path transform="translate(0,0)" fill="rgb(233,217,141)" d="M 1113.91 1156.97 C 1139.55 1156.82 1165.18 1156.82 1190.82 1156.97 L 1190.66 1169 L 1127.94 1168.93 L 1127.93 1209.5 C 1146.81 1209.25 1165.69 1209.27 1184.56 1209.58 L 1184.19 1221.71 C 1175.77 1221.64 1132.21 1219.41 1127.97 1223.02 L 1127.94 1267.25 L 1193.76 1267.22 L 1193.6 1279.48 C 1167.7 1280.13 1139.98 1279.67 1113.95 1279.67 L 1113.91 1156.97 z"/>
<path transform="translate(0,0)" fill="rgb(233,217,141)" d="M 1269.9 1156.85 L 1284.13 1156.84 L 1284.01 1267.23 L 1343.45 1267.22 L 1343.33 1279.66 L 1269.87 1279.7 L 1269.9 1156.85 z"/>
<path transform="translate(0,0)" fill="rgb(196,169,97)" d="M 942.098 1345.39 C 944.414 1345.53 944.257 1345.56 946.298 1346.7 C 949.114 1350.86 962.138 1376.62 959.039 1380.7 C 954.505 1378.49 956.719 1369.68 948.248 1368.14 L 935.35 1368.3 C 934.083 1371.88 931.679 1377.94 929.191 1380.7 C 928.6 1371.8 937.825 1353.94 942.098 1345.39 z"/>
<path transform="translate(0,0)" fill="rgb(0,69,114)" d="M 943.875 1349.51 C 946.79 1353.52 951.27 1360.87 948.566 1365.51 L 943.874 1365.76 C 941.181 1365.63 940.692 1365.91 938.471 1364.55 C 938.238 1361.63 938.171 1361.44 939.451 1358.78 L 943.875 1349.51 z"/>
<path transform="translate(0,0)" fill="rgb(196,169,97)" d="M 888.442 1362.25 C 892.149 1356.67 896.098 1349.15 902.083 1346.61 L 903.904 1347.51 C 906.528 1354.09 905.038 1373.08 903.711 1380.09 C 901.243 1374.75 901.677 1358.09 901.686 1351.51 L 901.051 1351.33 C 898.004 1353.01 890.851 1364.48 888.329 1368.18 C 883.928 1362.22 879.097 1354.53 874.925 1348.27 C 875.07 1352.95 875.841 1378.39 873.005 1380.4 C 871.83 1372.51 871.167 1352.41 872.563 1344.84 C 880.527 1347.21 883.65 1354.8 888.442 1362.25 z"/>
<path transform="translate(0,0)" fill="rgb(233,217,141)" d="M 1015.45 1344.37 C 1023.25 1347.98 1037.14 1367.78 1043.88 1376.01 C 1043.84 1369.17 1043.03 1351.74 1044.3 1345.97 L 1045.85 1345.27 C 1048.03 1348.64 1046.85 1369.6 1047.1 1374.6 C 1047.29 1378.46 1046.82 1379.47 1044.58 1381.48 C 1038.5 1376.4 1023.36 1356.26 1017.97 1349.36 C 1018.52 1357.39 1018.87 1371.79 1018.52 1379.73 L 1017.12 1380.75 L 1015.62 1379.48 C 1014.32 1368.89 1015.1 1355.2 1015.45 1344.37 z"/>
<path transform="translate(0,0)" fill="rgb(233,217,141)" d="M 1167.66 1345.23 C 1174.29 1345.38 1181.03 1345.11 1187.32 1347.04 L 1187.48 1347.93 C 1182.05 1349.35 1177.34 1348.94 1171.72 1348.87 L 1171.36 1360.46 C 1176.8 1360.44 1180.19 1360.11 1185.46 1361.6 L 1185.83 1362.59 C 1181.22 1364.3 1176.43 1363.86 1171.42 1363.86 L 1171.4 1377.03 C 1176.91 1377.01 1183.29 1376.45 1188.33 1378.23 L 1187.65 1379.21 C 1181.08 1381.13 1174.46 1380.69 1167.59 1380.67 L 1167.66 1345.23 z"/>
<path transform="translate(0,0)" fill="rgb(233,217,141)" d="M 1070.74 1345.4 C 1078.62 1346.01 1083.17 1345.05 1091.33 1347.31 C 1090.68 1347.26 1090.03 1347.2 1089.37 1347.15 L 1088.71 1348.27 C 1084.63 1348.92 1078.75 1348.72 1074.47 1348.73 L 1074.1 1360.67 C 1077.82 1360.63 1086.41 1360 1088.79 1362.29 C 1084.27 1364.06 1079.13 1363.73 1074.16 1363.85 L 1074.16 1377.11 C 1079.63 1377.05 1083.65 1377.03 1089.17 1377.52 L 1090.01 1379.07 L 1090.55 1379 L 1090.65 1377.78 L 1092.24 1378.25 L 1091.81 1378.97 C 1084.38 1380.83 1078.04 1380.56 1070.4 1380.65 C 1070.38 1372.47 1069.79 1352.79 1070.74 1345.4 z"/>
<path transform="translate(0,0)" fill="rgb(233,217,141)" d="M 1218.63 1345.07 C 1223.39 1344.9 1229.82 1344.44 1233.64 1347.74 L 1233.19 1348.44 C 1230.04 1348.57 1226.9 1348.76 1223.76 1349 C 1220.25 1349.29 1218.47 1349.53 1216.16 1352.23 C 1216.94 1358.98 1231.1 1359.44 1237.33 1369.21 C 1238.28 1376.19 1233.26 1378.73 1227.34 1380.96 C 1222.55 1380.97 1215.81 1381.51 1212.26 1378.25 L 1212.39 1376.4 C 1217.07 1376.77 1226.54 1377.96 1230.32 1376.31 C 1233.35 1373.14 1232.52 1374.94 1233.23 1370.91 C 1229.6 1360.67 1197.97 1360.29 1218.63 1345.07 z"/>
<path transform="translate(0,0)" fill="rgb(172,130,67)" d="M 783.174 1345.36 C 792.06 1345.6 796.271 1345.31 805.018 1347.73 C 798.629 1347.94 779.631 1347.13 788 1359.75 C 793.025 1360.44 797.58 1361.24 802.543 1362.16 C 801.785 1364.13 791.21 1362.03 786.768 1365.03 C 786.644 1368.74 786.216 1371.28 787.573 1374.72 C 792.373 1379.32 800.944 1376.61 810.615 1378.12 L 812.341 1378.4 C 803.324 1380.3 792.414 1380.34 783.072 1380.71 C 783.547 1369.24 783.244 1356.9 783.174 1345.36 z"/>
<path transform="translate(0,0)" fill="rgb(233,217,141)" d="M 1129.76 1377.41 C 1133.52 1369.4 1139.3 1348.94 1144.62 1345.28 L 1145.85 1345.97 L 1145.45 1348.25 C 1142.87 1354.95 1135.13 1378.18 1130.22 1380.72 C 1124.59 1378.91 1113.03 1349.8 1113.7 1344.96 L 1116.33 1346.04 C 1119.7 1350.73 1127.16 1370.73 1129.76 1377.41 z"/>
<path transform="translate(0,0)" fill="rgb(172,130,67)" d="M 742.854 1344.94 C 748.734 1344.21 751.339 1345.22 756.804 1347.26 C 755.744 1347.37 754.684 1347.48 753.625 1347.59 C 748.532 1348.15 743.658 1348.07 740.397 1352.12 C 741.096 1360.76 778.769 1366.45 752.579 1380.89 C 747.879 1380.93 739.406 1381.41 735.934 1378.33 C 738.018 1375.21 748.522 1378.78 754.304 1376.37 C 756.796 1373.77 756.751 1374.02 757.357 1370.5 C 752.952 1359.57 723.215 1361.65 742.854 1344.94 z"/>
<path transform="translate(0,0)" fill="rgb(172,130,67)" d="M 828.63 1344.24 L 831.131 1345.79 C 832.755 1351.48 832.089 1370.06 831.99 1377.08 C 837.621 1376.93 843.139 1376.44 848.611 1377.57 L 849.834 1379.53 C 842.701 1380.3 835.243 1380.18 828.043 1380.22 C 828.084 1368.23 828.28 1356.23 828.63 1344.24 z"/>
<path transform="translate(0,0)" fill="rgb(146,101,55)" d="M 646.087 1425.06 C 651.267 1427.96 656.494 1430.96 661.702 1433.8 C 654.413 1432.18 648.937 1431 641.888 1428.62 L 646.087 1425.06 z"/>
<path transform="translate(0,0)" fill="rgb(146,101,55)" d="M 842.328 1004.78 L 844.948 1008.55 C 840.16 1015.96 837.488 1019.61 831.526 1026.01 C 835.67 1018.5 838.762 1012.56 842.328 1004.78 z"/>
<path transform="translate(0,0)" fill="rgb(146,101,55)" d="M 518.257 1385.7 C 521.761 1389.11 524.376 1391.61 527.509 1395.44 C 523.592 1393.04 518.18 1389.95 514.548 1387.36 L 518.257 1385.7 z"/>
</svg>